<svg xmlns="http://www.w3.org/2000/svg" viewBox="0 0 1203.17 1244"><defs><style>.cls-1,.cls-2,.cls-6{fill:#8c6239;}.cls-2{font-size:141.13px;font-family:Montserrat-ExtraBold, Montserrat;font-weight:800;}.cls-3{letter-spacing:0em;}.cls-4{letter-spacing:-0.01em;}.cls-5{letter-spacing:0em;}.cls-6{font-size:56.19px;font-family:Montserrat-LightItalic, Montserrat;font-weight:300;font-style:italic;}.cls-7{letter-spacing:0em;}.cls-8{letter-spacing:-0.03em;}.cls-9{letter-spacing:-0.01em;}.cls-10{letter-spacing:0.01em;}</style></defs><title>bigLogo</title><g id="Capa_2" data-name="Capa 2"><g id="Capa_1-2" data-name="Capa 1"><path class="cls-1" d="M387.57,936.92H0v28.75H441.26C423.35,956.77,405.26,947.09,387.57,936.92Z"/><path class="cls-1" d="M812.41,936.92c-17.67,10.17-35.75,19.85-53.64,28.75h444.4V936.92Z"/><path class="cls-1" d="M299.49,879.42H0v28.75H340.57C326.05,898.66,312.3,889,299.49,879.42Z"/><path class="cls-1" d="M900.77,879.42C888,889,874.22,898.66,859.7,908.17h343.47V879.42Z"/><text class="cls-2" transform="translate(52.33 1141.53)"><tspan class="cls-3">R</tspan><tspan x="103.73" y="0">aí</tspan><tspan class="cls-4" x="236.52" y="0">c</tspan><tspan x="320.78" y="0">es </tspan><tspan class="cls-5" x="529.64" y="0">L</tspan><tspan x="615.44" y="0">ocales</tspan></text><text class="cls-6" transform="translate(174.18 1226.16)">T<tspan class="cls-7" x="31.63" y="0">h</tspan><tspan x="69.5" y="0">e Best Ha</tspan><tspan class="cls-7" x="340.72" y="0">n</tspan><tspan x="378.59" y="0">d</tspan><tspan class="cls-7" x="416.52" y="0">m</tspan><tspan x="476.36" y="0">ade </tspan><tspan class="cls-8" x="600.26" y="0">P</tspan><tspan class="cls-9" x="638.97" y="0">r</tspan><tspan x="660.32" y="0">odu</tspan><tspan class="cls-10" x="770.68" y="0">c</tspan><tspan x="802.2" y="0">ts</tspan></text><path class="cls-1" d="M600.09,0V.25S215.91,628.78,230.29,726.78,523,972.2,600.09,972.2s355.43-147.66,369.8-245.66S600.09,0,600.09,0Zm9.74,312.72c120.54-.25,9.65,215.09,9.65,215.09S490.64,313,609.83,312.72ZM807.17,761.61c-47,38.78-183,44-226,44.43s-163-3.77-197-51.58,51-68.51,144-83.19,91-69.27,91-69.27,48,36.89,8,66.63-186,31.62-153,70,115,39.53,184,31.25,91-29,87-38.4c-7.91-18.62-95-21.08-163,7.9,14-25.22,66-47.81,138-42.91S854.17,722.84,807.17,761.61Z"/></g></g></svg>