<svg xmlns="http://www.w3.org/2000/svg" viewBox="0 0 1203.17 972.2"><defs><style>.cls-1{fill:#8c6239;}</style></defs><title>logoIcon</title><g id="Capa_2" data-name="Capa 2"><g id="Capa_1-2" data-name="Capa 1"><path class="cls-1" d="M387.57,936.92H0v28.75H441.26C423.35,956.77,405.26,947.09,387.57,936.92Z"/><path class="cls-1" d="M812.41,936.92c-17.67,10.17-35.75,19.85-53.64,28.75h444.4V936.92Z"/><path class="cls-1" d="M299.49,879.42H0v28.75H340.57C326.05,898.66,312.3,889,299.49,879.42Z"/><path class="cls-1" d="M900.77,879.42C888,889,874.22,898.66,859.7,908.17h343.47V879.42Z"/><path class="cls-1" d="M600.09,0V.25S215.91,628.78,230.29,726.78,523,972.2,600.09,972.2s355.43-147.66,369.8-245.66S600.09,0,600.09,0Zm9.74,312.72c120.54-.25,9.65,215.09,9.65,215.09S490.64,313,609.83,312.72ZM807.17,761.61c-47,38.78-183,44-226,44.43s-163-3.77-197-51.58,51-68.51,144-83.19,91-69.27,91-69.27,48,36.89,8,66.63-186,31.62-153,70,115,39.53,184,31.25,91-29,87-38.4c-7.91-18.62-95-21.08-163,7.9,14-25.22,66-47.81,138-42.91S854.17,722.84,807.17,761.61Z"/></g></g></svg>