<svg xmlns="http://www.w3.org/2000/svg" viewBox="0 0 1082.29 177.97"><defs><style>.cls-1{isolation:isolate;}.cls-2{fill:#fff;}</style></defs><title>textLogoWhite</title><g id="Capa_2" data-name="Capa 2"><g id="Capa_1-2" data-name="Capa 1"><g id="Capa_2-2" data-name="Capa 2"><g id="Capa_1-2-2" data-name="Capa 1-2"><g class="cls-1"><g class="cls-1"><path class="cls-2" d="M43.19,80.87H27.94v26.25H0V8.33H45.16c27,0,43.89,14,43.89,36.55,0,14.54-7,25.26-19.33,31.19L91,107.12H61.11Zm.28-50.53H27.94V59.27H43.47c11.57,0,17.36-5.36,17.36-14.39S55,30.34,43.47,30.34Z"/></g><g class="cls-1"><path class="cls-2" d="M174.15,64.64v42.48h-25V97.24c-3.81,7.34-11.43,11.15-22.58,11.15-18.34,0-28.51-10.31-28.51-23.57,0-14.11,10.31-22.86,34-22.86h15.24c-.42-7.77-5.65-12.14-16.23-12.14-7.34,0-15.53,2.54-20.75,6.63l-9-18.2c8.75-5.79,21.73-8.9,33.73-8.9C159.9,29.35,174.15,40.36,174.15,64.64ZM147.34,82.56V75.93H135.77c-8.61,0-11.72,3.1-11.72,7.76s3.67,7.76,10,7.76C140,91.45,145.22,88.63,147.34,82.56Z"/><path class="cls-2" d="M209.58,0h26.81L209.86,21.45H190.67ZM191.09,30.63H217.9v76.49H191.09Z"/></g><g class="cls-1"><path class="cls-2" d="M230.45,68.73c0-23,18.21-39.38,43.89-39.38,17.36,0,30.63,7.77,35.85,21L289.44,61c-3.67-7.2-9-10.3-15.24-10.3-9.31,0-16.65,6.49-16.65,18.06,0,11.85,7.34,18.35,16.65,18.35,6.21,0,11.57-3.11,15.24-10.31l20.75,10.59c-5.22,13.26-18.49,21-35.85,21C248.66,108.39,230.45,92,230.45,68.73Z"/></g><g class="cls-1"><path class="cls-2" d="M397.27,75.64h-55.6c2.25,7.77,8.89,12.28,18.77,12.28,7.48,0,12.42-2.11,17.64-6.63L392.19,96c-7.34,8.18-18.06,12.42-32.6,12.42-27.24,0-44.88-16.8-44.88-39.66s17.92-39.38,42.06-39.38c22.58,0,40.93,14.4,40.93,39.66C397.7,71,397.41,73.53,397.27,75.64Zm-56-14.11h31.33c-1.41-8-7.33-13.12-15.66-13.12S342.8,53.49,341.24,61.53Z"/><path class="cls-2" d="M404.05,100.48l8-18.34c7.06,4.37,17.36,7,26.67,7,9,0,12-2,12-5.22,0-10.3-45.16,1.41-45.16-29.21,0-14.4,13.27-25.41,37.26-25.41,10.72,0,22.58,2.26,30.2,6.5L465,54.05a44.84,44.84,0,0,0-22-5.64c-9,0-12.28,2.54-12.28,5.36,0,10.58,45-.85,45,29.5,0,14.11-13,25.12-37.82,25.12C424.93,108.39,411.53,105.14,404.05,100.48Z"/></g><g class="cls-1"><path class="cls-2" d="M529.64,8.33h27.94V85h47.14v22.16H529.64Z"/></g><g class="cls-1"><path class="cls-2" d="M609.37,68.73c0-23,18.21-39.38,43.19-39.38,25.26,0,43.18,16.38,43.18,39.38s-17.92,39.66-43.18,39.66C627.58,108.39,609.37,91.87,609.37,68.73Zm59.28,0c0-11.57-6.92-18.06-16.09-18.06s-16.09,6.49-16.09,18.06,7,18.35,16.09,18.35S668.65,80.44,668.65,68.73Z"/><path class="cls-2" d="M703.36,68.73c0-23,18.21-39.38,43.89-39.38,17.36,0,30.63,7.77,35.85,21L762.35,61c-3.67-7.2-9-10.3-15.24-10.3-9.31,0-16.65,6.49-16.65,18.06,0,11.85,7.34,18.35,16.65,18.35,6.21,0,11.57-3.11,15.24-10.31L783.1,87.36c-5.22,13.26-18.49,21-35.85,21C721.57,108.39,703.36,92,703.36,68.73Z"/><path class="cls-2" d="M865,64.64v42.48H840V97.24c-3.81,7.34-11.43,11.15-22.58,11.15-18.34,0-28.5-10.31-28.5-23.57,0-14.11,10.3-22.86,34-22.86h15.24c-.42-7.77-5.64-12.14-16.23-12.14-7.34,0-15.52,2.54-20.75,6.63l-9-18.2c8.75-5.79,21.74-8.9,33.73-8.9C850.7,29.35,865,40.36,865,64.64ZM838.14,82.56V75.93H826.57c-8.61,0-11.72,3.1-11.72,7.76s3.67,7.76,10,7.76C830.8,91.45,836,88.63,838.14,82.56Z"/><path class="cls-2" d="M881.89,2.4H908.7V107.12H881.89Z"/><path class="cls-2" d="M1003.82,75.64h-55.6c2.26,7.77,8.89,12.28,18.77,12.28,7.48,0,12.42-2.11,17.64-6.63L998.74,96c-7.34,8.18-18.06,12.42-32.6,12.42-27.24,0-44.88-16.8-44.88-39.66s17.93-39.38,42.06-39.38c22.58,0,40.93,14.4,40.93,39.66C1004.25,71,1004,73.53,1003.82,75.64Zm-56-14.11h31.34c-1.42-8-7.34-13.12-15.67-13.12S949.35,53.49,947.79,61.53Z"/><path class="cls-2" d="M1010.6,100.48l8-18.34c7.06,4.37,17.36,7,26.68,7,9,0,12-2,12-5.22,0-10.3-45.16,1.41-45.16-29.21,0-14.4,13.27-25.41,37.26-25.41,10.72,0,22.58,2.26,30.2,6.5l-8,18.2a44.88,44.88,0,0,0-22-5.64c-9,0-12.28,2.54-12.28,5.36,0,10.58,45-.85,45,29.5,0,14.11-13,25.12-37.82,25.12C1031.49,108.39,1018.08,105.14,1010.6,100.48Z"/></g></g><g class="cls-1"><g class="cls-1"><path class="cls-2" d="M14.89,141H.73l.56-2.58H32.47L32,141H17.81l-7.36,36.75H7.58Z"/></g><g class="cls-1"><path class="cls-2" d="M60.73,157.58a15.93,15.93,0,0,1-.34,3.2l-3.37,17H54.21l3.37-17a12.26,12.26,0,0,0,.29-2.81c0-4.55-2.76-7.25-8.26-7.25-6.69,0-11.41,3.77-12.87,11.07l-3.2,16H30.73L39,136.06h2.81l-3.54,17.81c2.87-3.93,7.08-5.68,12-5.68C57.08,148.19,60.73,151.79,60.73,157.58Z"/></g><g class="cls-1"><path class="cls-2" d="M71,163.7c-.05.62-.11,1.24-.11,1.85,0,6.35,3.71,9.89,10.85,9.89a13.57,13.57,0,0,0,10-3.93l1.29,2c-2.58,2.81-6.91,4.49-11.57,4.49-8.31,0-13.37-4.61-13.37-12.3,0-10,6.8-17.48,16-17.48,7.64,0,12.47,4.61,12.47,12.25a19.12,19.12,0,0,1-.33,3.26Zm.34-2.19H93.94a14.34,14.34,0,0,0,0-1.46c0-6.07-4-9.44-9.88-9.44C77.64,150.61,72.76,155,71.35,161.51Z"/><path class="cls-2" d="M151.87,165.61c0,7.87-6.24,12.14-16.58,12.14H117.6l7.86-39.33h16.29c7.31,0,11.8,2.81,11.8,8.2,0,5.84-3.65,9.5-8.65,10.9C149.28,158.48,151.87,161.17,151.87,165.61Zm-2.87.11c0-4.83-3.43-6.68-9.94-6.68H124.23L121,175.27h14.6C144.17,175.27,149,171.9,149,165.72Zm-24.33-9.15H138.1c7.25,0,12.47-3.21,12.47-9.5,0-4.16-3.42-6.18-9.32-6.18H127.82Z"/><path class="cls-2" d="M161.31,163.7c-.06.62-.11,1.24-.11,1.85,0,6.35,3.71,9.89,10.84,9.89a13.58,13.58,0,0,0,10.06-3.93l1.29,2c-2.58,2.81-6.91,4.49-11.57,4.49-8.32,0-13.37-4.61-13.37-12.3,0-10,6.79-17.48,16-17.48,7.64,0,12.47,4.61,12.47,12.25a19.08,19.08,0,0,1-.34,3.26Zm.34-2.19h22.58a12,12,0,0,0,.06-1.46c0-6.07-4-9.44-9.89-9.44C167.94,150.61,163.05,155,161.65,161.51Z"/><path class="cls-2" d="M189.13,174.26l1.51-2.19c2.19,2.08,6.07,3.43,10.11,3.43,6.07,0,9.56-2.3,9.56-6.07,0-7.42-16.91-2.47-16.91-12.36,0-5.39,4.88-8.88,12.24-8.88,3.65,0,7.53,1.07,9.67,2.87l-1.3,2.19a14.38,14.38,0,0,0-8.59-2.58c-5.79,0-9.27,2.47-9.27,6.12,0,7.59,17,2.64,17,12.36,0,5.56-5,8.82-12.59,8.82C195.87,178,191.37,176.4,189.13,174.26Z"/><path class="cls-2" d="M224.47,169.26a9.7,9.7,0,0,0-.23,2.08c0,2.75,1.46,4.21,4.5,4.21a7.7,7.7,0,0,0,4.77-1.62l.85,2.07a10.11,10.11,0,0,1-6.3,2c-4.21,0-6.68-2.3-6.68-6.24a10.3,10.3,0,0,1,.22-2.24l3.77-18.66h-5.45l.45-2.41h5.45l1.29-6.41h2.81l-1.29,6.41H238l-.45,2.41h-9.32Z"/><path class="cls-2" d="M297,138.42l-7.86,39.33h-2.87L290,159.09H263.69L260,177.75h-2.87L265,138.42h2.86l-3.59,18h26.29l3.6-18Z"/><path class="cls-2" d="M333.86,148.42,328,177.75h-2.7l1.13-5.73A15.13,15.13,0,0,1,314.09,178c-7.59,0-12.64-4.66-12.64-12.19,0-10.11,7-17.59,16.57-17.59,6.13,0,10.17,2.76,11.57,7.53l1.47-7.3Zm-5.44,12.13c0-6.23-3.83-9.83-10.4-9.83-7.92,0-13.76,6.29-13.76,14.89,0,6.24,3.82,9.83,10.39,9.83C322.57,175.44,328.42,169.21,328.42,160.55Z"/></g><g class="cls-1"><path class="cls-2" d="M369.82,157.58a15.93,15.93,0,0,1-.34,3.2l-3.37,17H363.3l3.37-17A12.26,12.26,0,0,0,367,158c0-4.55-2.76-7.25-8.26-7.25-6.69,0-11.41,3.77-12.87,11.07l-3.2,16h-2.81l5.84-29.33h2.76L347.29,154c2.87-4,7.14-5.79,12.14-5.79C366.17,148.19,369.82,151.79,369.82,157.58Z"/></g><g class="cls-1"><path class="cls-2" d="M412.13,136.06l-8.32,41.69h-2.69l1.12-5.73A15.12,15.12,0,0,1,389.88,178c-7.58,0-12.64-4.66-12.64-12.19,0-10.11,7-17.59,16.57-17.59,6.13,0,10.17,2.76,11.58,7.59l3.93-19.72Zm-7.92,24.49c0-6.23-3.82-9.83-10.4-9.83-7.92,0-13.76,6.29-13.76,14.89,0,6.24,3.82,9.83,10.39,9.83C398.36,175.44,404.21,169.21,404.21,160.55Z"/></g><g class="cls-1"><path class="cls-2" d="M467.59,157.46a17.09,17.09,0,0,1-.34,3.32l-3.43,17H461l3.43-17a12.73,12.73,0,0,0,.28-2.87c0-4.49-2.64-7.19-7.92-7.19-6.29,0-10.95,3.54-12.3,10.4l-3.37,16.63h-2.81l3.42-17a12.73,12.73,0,0,0,.28-2.87c0-4.49-2.64-7.19-7.92-7.19-6.46,0-11,3.82-12.47,11.07l-3.2,16h-2.81l5.84-29.33h2.75l-1.12,5.5c2.81-4,7-5.73,11.74-5.73,5.45,0,8.77,2.48,9.78,6.58a14.64,14.64,0,0,1,12.75-6.58C464.05,148.19,467.59,151.73,467.59,157.46Z"/></g><g class="cls-1"><path class="cls-2" d="M507.43,148.42l-5.85,29.33h-2.69L500,172A15.12,15.12,0,0,1,487.65,178c-7.58,0-12.64-4.66-12.64-12.19,0-10.11,7-17.59,16.57-17.59,6.13,0,10.17,2.76,11.58,7.53l1.46-7.3ZM502,160.55c0-6.23-3.82-9.83-10.4-9.83-7.92,0-13.76,6.29-13.76,14.89,0,6.24,3.82,9.83,10.39,9.83C496.13,175.44,502,169.21,502,160.55Z"/><path class="cls-2" d="M547.83,136.06l-8.32,41.69h-2.7l1.13-5.73A15.13,15.13,0,0,1,525.58,178c-7.59,0-12.64-4.66-12.64-12.19,0-10.11,7-17.59,16.57-17.59,6.12,0,10.17,2.76,11.57,7.59L545,136.06Zm-7.93,24.49c0-6.23-3.82-9.83-10.39-9.83-7.92,0-13.76,6.29-13.76,14.89,0,6.24,3.82,9.83,10.39,9.83C534.06,175.44,539.9,169.21,539.9,160.55Z"/><path class="cls-2" d="M553.73,163.7c-.06.62-.11,1.24-.11,1.85,0,6.35,3.71,9.89,10.84,9.89a13.59,13.59,0,0,0,10.06-3.93l1.29,2c-2.58,2.81-6.91,4.49-11.57,4.49-8.32,0-13.38-4.61-13.38-12.3,0-10,6.8-17.48,16-17.48,7.64,0,12.47,4.61,12.47,12.25a19.08,19.08,0,0,1-.34,3.26Zm.34-2.19h22.58a12,12,0,0,0,.06-1.46c0-6.07-4.05-9.44-9.89-9.44C560.36,150.61,555.47,155,554.07,161.51Z"/></g><g class="cls-1"><path class="cls-2" d="M635.6,149.26c0,10.11-7,15.62-18.09,15.62H605.76l-2.58,12.87h-2.87l7.87-39.33h13.71C630.54,138.42,635.6,142.35,635.6,149.26Zm-2.93.23c0-5.51-3.93-8.49-10.95-8.49H610.54l-4.27,21.3h11.24C627.11,162.3,632.67,158,632.67,149.49Z"/></g><g class="cls-1"><path class="cls-2" d="M657.9,148.19l-.5,2.76c-.34,0-.57-.06-.9-.06-6.63,0-11,4-12.59,11.8l-3,15.06h-2.81l5.84-29.33h2.76l-1.24,6.18C648,150.38,652,148.19,657.9,148.19Z"/></g><g class="cls-1"><path class="cls-2" d="M659,165.78c0-10.06,7-17.59,16.8-17.59,7.92,0,13,4.72,13,12.2,0,10.11-7,17.58-16.8,17.58C664,178,659,173.2,659,165.78Zm27-5.23c0-6.23-3.82-9.83-10.4-9.83-7.92,0-13.76,6.29-13.76,14.89,0,6.24,3.82,9.83,10.39,9.83C680.09,175.44,685.94,169.21,685.94,160.55Z"/><path class="cls-2" d="M728.7,136.06l-8.32,41.69h-2.7l1.13-5.73A15.13,15.13,0,0,1,706.45,178c-7.59,0-12.64-4.66-12.64-12.19,0-10.11,7-17.59,16.57-17.59,6.12,0,10.17,2.76,11.57,7.59l3.94-19.72Zm-7.93,24.49c0-6.23-3.82-9.83-10.39-9.83-7.92,0-13.76,6.29-13.76,14.89,0,6.24,3.82,9.83,10.39,9.83C714.93,175.44,720.77,169.21,720.77,160.55Z"/><path class="cls-2" d="M763.82,148.42,758,177.75h-2.75l1.12-5.57c-2.86,4-7.08,5.79-12,5.79-6.63,0-10.28-3.59-10.28-9.38a15.93,15.93,0,0,1,.34-3.2l3.37-17h2.81l-3.38,17a13.1,13.1,0,0,0-.28,2.81c0,4.55,2.7,7.24,8.15,7.24,6.63,0,11.29-3.76,12.75-11.06l3.21-16Z"/></g><g class="cls-1"><path class="cls-2" d="M769.33,165.78c0-10.17,7-17.59,16.85-17.59,5.23,0,9.05,1.86,11.13,5.51L795,155.1c-1.79-3-4.83-4.38-9-4.38-8,0-13.88,6.29-13.88,14.89,0,6.24,3.82,9.83,10.62,9.83a12.41,12.41,0,0,0,9.72-4.27l2,1.58c-2.58,3.31-7.08,5.22-11.91,5.22C774.39,178,769.33,173.2,769.33,165.78Z"/></g><g class="cls-1"><path class="cls-2" d="M806.41,169.26a9.63,9.63,0,0,0-.22,2.08c0,2.75,1.46,4.21,4.49,4.21a7.73,7.73,0,0,0,4.78-1.62l.84,2.07a10.06,10.06,0,0,1-6.29,2c-4.22,0-6.69-2.3-6.69-6.24a10.33,10.33,0,0,1,.23-2.24l3.76-18.66h-5.45l.45-2.41h5.45l1.29-6.41h2.81l-1.29,6.41h9.33l-.45,2.41h-9.33Z"/><path class="cls-2" d="M820.29,174.26l1.52-2.19c2.19,2.08,6.07,3.43,10.11,3.43,6.07,0,9.55-2.3,9.55-6.07,0-7.42-16.91-2.47-16.91-12.36,0-5.39,4.89-8.88,12.25-8.88,3.65,0,7.53,1.07,9.66,2.87l-1.29,2.19a14.43,14.43,0,0,0-8.6-2.58c-5.78,0-9.27,2.47-9.27,6.12,0,7.59,17,2.64,17,12.36,0,5.56-5,8.82-12.58,8.82C827,178,822.54,176.4,820.29,174.26Z"/></g></g></g></g></g></g></svg>